<?xml version="1.0" encoding="utf-8"?>
<!-- Generator: Adobe Illustrator 19.0.0, SVG Export Plug-In . SVG Version: 6.00 Build 0)  -->
<svg version="1.1" xmlns="http://www.w3.org/2000/svg" xmlns:xlink="http://www.w3.org/1999/xlink" x="0px" y="0px"
	 viewBox="0 0 1368 768" style="enable-background:new 0 0 1368 768;" xml:space="preserve">
<style type="text/css">
	.st0{fill:#C6CE9E;stroke:#000000;stroke-miterlimit:10;}
	.st1{fill:#EDDEAB;}
	.st2{fill:#FDFBDF;}
	.st3{fill:#B1B585;}
	.st4{fill:#AAA983;}
	.st5{fill:#A0A272;}
	.st6{fill:#888970;}
	.st7{fill:#A2BA94;}
</style>
<g id="Layer_1">
	<rect id="XMLID_1_" class="st0" width="1368" height="768"/>
</g>
<g id="Layer_2">
	<path id="XMLID_12_" class="st1" d="M1368,327.2V224.9c-34,1.3-64.4,8.6-86.6,19.8c-11.4-3.3-24-5.2-37.3-5.2
		c-26.3,0-50.1,7.3-66.9,19c-7.9-1.9-16.3-2.9-25.1-2.9c-18.7,0-35.9,4.6-49.2,12.3c-4.3-1.5-9-2.4-14.1-2.4
		c-9.3,0-17.7,2.9-23.6,7.6c-2.9-0.1-5.8-0.2-8.8-0.2c-35.2,0-65.6,9.8-79.3,23.9c-7.9-16.7-29.1-28.6-54.1-28.6
		c-24.3,0-45.1,11.3-53.4,27.3c-5.5-1.1-11.4-1.7-17.6-1.7c-16,0-30.3,4-39.5,10.2c-0.5-19.8-26.9-35.8-59.3-35.8
		c-13.3,0-25.5,2.7-35.4,7.2c-11.7-5.1-26.5-8.6-43-9.6c-8.8-20.2-35.6-34.9-67.2-34.9c-35.4,0-64.6,18.3-69.6,42.2
		c-2.5-0.1-5-0.2-7.5-0.2c-29.1,0-54.7,8.9-69.3,22.2c-9.3-13.3-25.7-22.2-44.3-22.2c-21.7,0-40.3,12-48.3,29.1
		c-9.4-8.6-25.1-14.3-42.8-14.3c-18.5,0-34.8,6.2-44,15.5c-2.7-0.4-5.4-0.6-8.1-0.6c-20.9,0-38.7,12.1-45.6,29.2
		c-5.8-1.3-12.1-2-18.6-2c-4.8,0-9.4,0.4-13.8,1.1c-2.6-9.6-11-16.7-21.1-17.1c-9-13.7-24.4-24.1-43-28.5c-3.9-5.8-8.7-11.1-14-15.8
		c3.2-5.4,4.9-11.3,4.9-17.4c0-26.6-32.6-48.1-72.8-48.1c-19.2,0-36.6,4.9-49.7,12.9V437h1359.4v-14.4c2.8,0.4,5.7,0.7,8.6,0.8
		V327.2z M367.6,341c0.4-0.4,0.9-0.8,1.3-1.2c0.2,0.4,0.4,0.8,0.6,1.2H367.6z"/>
</g>
<g id="Layer_3">
	<path id="XMLID_9_" class="st2" d="M942.3,418.2c-7.6-50.8-51.4-89.8-104.4-89.8s-96.8,39-104.4,89.8H942.3z"/>
</g>
<g id="Layer_5">
	<path id="XMLID_2_" class="st3" d="M5.2,457H1368v-40.7l-23.3-12.3l-35.8-9.9l-17.3-12.3l-16-11.1l-54.3-6.2h-9.9l-28.4-30.9
		l-35.8-9.9l-63-12.3l-34.6-30.9l-27.2,23.5l-30.9,8.6l-4.9,23.5l-16,21l-46.9,29.6l-13.6,4.9L883,404l-71.6,2.5l-21-9.9L778,383
		l-8.6-8.6l-9.9-5.6h-11.1l-14.8-14.2l-12.3-12.3l-9.9-6.2l-24.8-8.6v-9.9v-6.2l-16,8.6l-4.9-16l-16-13.6l-19.8-21L599,284.2
		l-25.9,4.9l-14.8,11.1l-17.3,8.6l-30.9,16l-12.3,6.2c0,0-12.3,1.2-12.3,7.4c0,6.2,1.2,12.3,1.2,12.3l-2.5,14.2l-8.6,5.6l-46.9,8.6
		c0,0-4.9,1.2-7.4,4.9c-2.5,3.7-11.1,4.9-14.8,9.9s-13.6,9.9-13.6,9.9l-56.8-2.5l-8.6-7.4l-24.7-16l-18.5-13l-16-6.8l-12.3-9.9
		l-8.6-6.2l-24.7,11.1l-11.1,11.7c0,0-7.4-8-9.9,0c-2.5,8-12.3,14.2-12.3,14.2l-2.5,9.9l-16,8.6l-6.2,1.2l-28.4,7.4l-9.9,2.5
		l-7.4,4.9l-32.1,9.9l-12.3,4.9l-24.7,9.9l-22.2,1.2C20,449.6,5.2,457,5.2,457z"/>
	<polygon id="XMLID_5_" class="st4" points="710.1,457 294.1,457 336.1,401.5 392.9,404 428.7,379.3 475.6,370.6 486.7,350.9 
		485.5,338.5 503.1,328.5 531.2,314 541,308.9 566.6,294 581.2,287.6 599,284.2 614,277 629.9,269.4 581.8,300.4 612.6,300.4 
		574.3,313.7 604,313.7 554.6,336.5 611.4,339.9 611.4,347.1 631.1,347.1 597.8,356.1 642.2,356.1 522.5,384 576.8,384 507.7,396.5 
		529.9,398.9 502.1,405.2 521.3,405.2 502.1,418.2 548.4,418.2 507.7,429.8 660.8,436 626.2,444.6 691.6,439.7 674.3,449.5 	"/>
</g>
<g id="Layer_4">
	<path id="XMLID_4_" class="st5" d="M626.2,508l30.9-6.3l29.5-17.3L699,477l12.3-7.4l11.1-6.2l18.5-13.6l21-9.9l12.1-10
		c0,0,0.3-6.1,6.4-6.1c6.2,0,39.5-18.5,39.5-18.5l12.3-8.6c7.4-1.2,23.5-6.2,27.2-6.2c3.7,0,9.9,0,9.9,0l8.6-11.1l9.9-14.8h8.6
		l39.5-18.5h12.3l24.7,6.2l11.1-6.2l11.1-13.6l8.6-6.2c0,0,7.4-4.6,12.3-6c4.9-1.4,11.1-3.9,17.3-6.3c6.2-2.5,100-35.8,100-35.8
		l6.2-14.8l7.4-14.8l12.3-13.6c0,0,8.6-9.9,12.3-9.9c3.7,0,3.7,0,3.7,0s2.5-4.9,7.4-6.2s13.6-8.6,13.6-8.6l9.9-6.2l12.3,14.8
		l9.9,11.1v8.6l12.3,12.3l12.3,8.6c0,0-4.9,1.2,0,6.2s8.6,19.8,8.6,19.8l13.6,12.3c0,0,1.2,1.2,6.2,2.5c4.9,1.2,17.3,9.9,17.3,9.9
		c8.6,9.9,14.8,16,14.8,16v8.6l4.9,8.6c0,0,2.5,16.2,6.2,12.4c3.7-3.8,12.3,0,12.3,0h6.2c0,0,3.7,8.6,4.9,12.3
		c1.2,3.7-2.5,11.1,0,14.8c2.5,3.7-6.2,3.7,0,14.8c6.2,11.1,7.4,16.2,7.4,16.2v9.7l6.2,6.1l6,12.5V508H626.2z"/>
	<polygon id="XMLID_3_" class="st6" points="1102.7,355.1 1144.7,334 1184.2,297 1171.9,297 1205.2,266.1 1205.2,246.4 
		1180.5,261.2 1206.4,203.2 1228.7,229.1 1228.7,237.8 1253.4,258.7 1253.4,279.2 1299,309.4 1320.3,349.7 1337.3,355.1 
		1348.4,367.4 1348.4,408.1 1339.8,442.7 1322.5,440.2 1285.5,469.9 1292.9,456.3 1287.9,445.2 1275.6,434 1260.8,439 1270.6,397 
		1233.6,436.5 1229.2,415.4 1211.5,423.2 1162,445.2 1211.5,395.8 1171.9,405.7 1191.6,373.7 1195.3,361.2 1147.2,373.7 1145.9,354 
			"/>
	<path id="XMLID_6_" class="st5" d="M447.2,510l-50.6-27.3l-29.6-26.9v-8.9c0,0-7.4-7.6-8.6-14.9s-11.1-15.8-11.1-15.8
		s-9.8-21.8-17.3-11c-6.2,8.9-37-16.3-37-16.3l-24.7-12.3l-33.3-8.6c0,0-13.6-14.8-23.5-18.5s-33.3-9.9-33.3-9.9s-14.8-4.9-21-7.4
		c-6.2-2.5-18.5-9.7-18.5-9.7h-23.5l-6.2-15H96.6c0,0,2.5-9.9-12.3-6.2s-46.9,6.2-46.9,6.2l-7.4,1.2l-13.6-8.2H0L5.2,510H447.2z"/>
</g>
<g id="Layer_6">
	<path id="XMLID_13_" class="st7" d="M1367.2,26V0H0.3v122.4c11.7,5.4,25.8,8.5,41,8.5c25,0,47-8.5,60.1-21.5
		c12.2,3.8,27.9,6.1,45,6.1c26.7,0,49.9-5.6,61.9-13.9c12.4,4.2,28.8,6.7,46.8,6.7c15,0,28.9-1.8,40.4-4.8c1.9,0.1,3.8,0.2,5.8,0.2
		c9.7,0,18.9-1.4,26.7-3.8c14.7,9.4,39.9,15.5,68.5,15.5c20.6,0,39.3-3.2,53.8-8.5c5.1,0.8,10.4,1.3,16.1,1.3c3.5,0,7-0.2,10.3-0.5
		c5.9,4.8,13.2,7.7,21.1,7.7c2.5,0,4.9-0.3,7.2-0.8c5.2,9.6,15.6,16.1,27.7,16.1c13.5,0,25-8.3,29.4-19.8c6.2,2.8,13.3,4.5,21,4.5
		c20.9,0,38.2-12.2,41.9-28.3c1.6,0.1,3.3,0.2,5,0.2c14.1,0,26.3-4.2,32.8-10.4h13.7c1,0.2,1.9,0.3,2.9,0.3c1,0,2.1-0.1,3-0.3h27.7
		c3.5,21.8,24.6,38.6,50.1,38.6c14.8,0,28-5.6,37.3-14.6c0.4,0,0.9,0,1.3,0c19.7,0,36-10.5,38.3-24h7.6
		c20.3,16.1,55.9,26.8,96.4,26.8c40.5,0,76.1-10.7,96.4-26.8h178.6c9.3,11.1,27.8,18.6,49,18.6c7.4,0,14.4-0.9,20.8-2.6
		c2.5,0.2,5,0.3,7.6,0.3c22.3,0,41.4-6.7,49.8-16.3h12.2c1.9,0.2,3.9,0.3,5.9,0.3c2.1,0,4.1-0.1,6-0.3V26z"/>
</g>
<g id="Layer_7">
</g>
</svg>
