<?xml version="1.0" encoding="utf-8"?>
<!-- Generator: Adobe Illustrator 19.0.0, SVG Export Plug-In . SVG Version: 6.00 Build 0)  -->
<svg version="1.1" id="Layer_1" xmlns="http://www.w3.org/2000/svg" xmlns:xlink="http://www.w3.org/1999/xlink" x="0px" y="0px"
	 viewBox="0 0 500 800" style="enable-background:new 0 0 500 800;" xml:space="preserve">
<style type="text/css">
	.st0{fill:#7FC242;}
	.st1{fill:#FDED18;}
</style>
<polygon id="XMLID_1_" class="st0" points="22.6,604 2.1,568.4 22.6,532.9 63.7,532.9 84.3,568.4 63.7,604 "/>
<polygon id="XMLID_3_" class="st0" points="105.6,604 85,568.4 105.6,532.9 146.6,532.9 167.2,568.4 146.6,604 "/>
<polygon id="XMLID_4_" class="st0" points="187.7,604 167.2,568.4 187.7,532.9 228.8,532.9 249.3,568.4 228.8,604 "/>
<polygon id="XMLID_7_" class="st0" points="436.1,604 415.5,568.4 436.1,532.9 477.2,532.9 497.7,568.4 477.2,604 "/>
<polygon id="XMLID_6_" class="st0" points="269.9,604 249.3,568.4 269.9,532.9 311,532.9 331.5,568.4 311,604 "/>
<polygon id="XMLID_5_" class="st0" points="352,604 331.5,568.4 352,532.9 393.1,532.9 413.6,568.4 393.1,604 "/>
<polygon id="XMLID_13_" class="st0" points="63.2,532.9 42.6,497.3 63.2,461.7 104.2,461.7 124.8,497.3 104.2,532.9 "/>
<polygon id="XMLID_12_" class="st0" points="146.1,532.9 125.5,497.3 146.1,461.7 187.2,461.7 207.7,497.3 187.2,532.9 "/>
<polygon id="XMLID_11_" class="st0" points="228.2,532.9 207.7,497.3 228.2,461.7 269.3,461.7 289.9,497.3 269.3,532.9 "/>
<polygon id="XMLID_9_" class="st0" points="310.4,532.9 289.9,497.3 310.4,461.7 351.5,461.7 372,497.3 351.5,532.9 "/>
<polygon id="XMLID_8_" class="st0" points="392.5,532.9 372,497.3 392.5,461.7 433.6,461.7 454.2,497.3 433.6,532.9 "/>
<polygon id="XMLID_19_" class="st0" points="104.2,461.7 83.7,426.1 104.2,390.6 145.3,390.6 165.8,426.1 145.3,461.7 "/>
<polygon id="XMLID_18_" class="st0" points="187.2,461.7 166.6,426.1 187.2,390.6 228.2,390.6 248.8,426.1 228.2,461.7 "/>
<polygon id="XMLID_17_" class="st0" points="269.3,461.7 248.8,426.1 269.3,390.6 310.4,390.6 330.9,426.1 310.4,461.7 "/>
<polygon id="XMLID_15_" class="st0" points="351.5,461.7 330.9,426.1 351.5,390.6 392.5,390.6 413.1,426.1 392.5,461.7 "/>
<polygon id="XMLID_25_" class="st0" points="145.3,390.6 124.8,355 145.3,319.4 186.4,319.4 206.9,355 186.4,390.6 "/>
<polygon id="XMLID_24_" class="st0" points="228.2,390.6 207.7,355 228.2,319.4 269.3,319.4 289.9,355 269.3,390.6 "/>
<polygon id="XMLID_23_" class="st0" points="310.4,390.6 289.9,355 310.4,319.4 351.5,319.4 372,355 351.5,390.6 "/>
<polygon id="XMLID_31_" class="st0" points="188.3,319.4 167.7,283.8 188.3,248.3 229.4,248.3 249.9,283.8 229.4,319.4 "/>
<polygon id="XMLID_30_" class="st0" points="271.2,319.4 250.7,283.8 271.2,248.3 312.3,248.3 332.8,283.8 312.3,319.4 "/>
<polygon id="XMLID_37_" class="st0" points="229.4,248.3 208.8,212.7 229.4,177.1 270.4,177.1 291,212.7 270.4,248.3 "/>
<polygon id="XMLID_2_" class="st1" points="251.1,42 272.9,86.2 321.8,93.3 286.4,127.8 294.8,176.4 251.1,153.5 207.4,176.4 
	215.7,127.8 180.4,93.3 229.2,86.2 "/>
</svg>
