<?xml version="1.0" encoding="utf-8"?>
<!-- Generator: Adobe Illustrator 18.1.1, SVG Export Plug-In . SVG Version: 6.00 Build 0)  -->
<svg version="1.1" xmlns="http://www.w3.org/2000/svg" xmlns:xlink="http://www.w3.org/1999/xlink" x="0px" y="0px" width="221.8px"
	 height="15px" viewBox="-205.7 440.7 221.8 15" enable-background="new -205.7 440.7 221.8 15" xml:space="preserve">
<g id="Calque_1">
</g>
<g id="Layer_2">
	<g>
		<g id="center_1_">
			<path fill="#FFD35C" d="M-94.5,440.7c-2.8,2.5-5.3,4.9-8.3,7.6c2.9,2.6,5.2,4.7,8.2,7.4c2.8-2.8,5.4-5.2,8.2-7.9
				C-89.5,445.2-91.8,443.1-94.5,440.7z M-98.4,448.5c0.6-1,3.2-3.2,3.8-3.7c0,0,2,1.3,3.8,3c-1.1,1.3-2.1,2.3-3.4,3.7
				C-95.5,450.5-96.8,449.6-98.4,448.5z"/>
		</g>
		<g id="line_1_">
			<rect x="-205.7" y="447.5" fill="#FFD35C" width="94.5" height="1.3"/>
			<rect x="-78.3" y="447.5" fill="#FFD35C" width="94.4" height="1.3"/>
		</g>
	</g>
</g>
</svg>
