<?xml version="1.0" encoding="utf-8"?>
<!-- Generator: Adobe Illustrator 19.0.0, SVG Export Plug-In . SVG Version: 6.00 Build 0)  -->
<svg version="1.1" xmlns="http://www.w3.org/2000/svg" xmlns:xlink="http://www.w3.org/1999/xlink" x="0px" y="0px"
	 viewBox="0 0 250 437" style="enable-background:new 0 0 250 437;" xml:space="preserve">
<style type="text/css">
	.st0{fill:#C9E3B1;}
	.st1{fill:#F4F4F4;}
	.st2{fill:#35ACE2;}
	.st3{fill:#146A8A;}
	.st4{fill:#44C7F0;}
</style>
<g id="Layer_1">
	<rect id="XMLID_1_" class="st0" width="250" height="437"/>
</g>
<g id="Layer_2">
	<path id="XMLID_7_" class="st1" d="M113.6,161.2H45.1c-6.6,0-12,5.4-12,12v150.4c0,6.6,5.4,12,12,12h68.5c6.6,0,12-5.4,12-12V173.2
		C125.6,166.6,120.2,161.2,113.6,161.2z M118.1,316H40.4V183.7h77.7V316z"/>
	<circle id="XMLID_2_" cx="74.8" cy="172.3" r="1.6"/>
	<circle id="XMLID_5_" cx="78.7" cy="172.3" r="1.6"/>
	<circle id="XMLID_8_" cx="82.9" cy="172.3" r="1.6"/>
	<path id="XMLID_24_" class="st1" d="M182.8,142.8h-39.1c-3.8,0-6.9,3.1-6.9,6.9v85.9c0,3.8,3.1,6.9,6.9,6.9h39.1
		c3.8,0,6.9-3.1,6.9-6.9v-85.9C189.7,145.8,186.6,142.8,182.8,142.8z M185.4,231.1H141v-75.6h44.4V231.1z"/>
	<circle id="XMLID_22_" cx="162.9" cy="149.1" r="0.9"/>
</g>
<g id="Layer_3">
	<path id="XMLID_13_" class="st1" d="M225.5,249.5H86.8c-6.6,0-12,5.4-12,12V339c0,6.6,5.4,12,12,12h138.7c6.6,0,12-5.4,12-12v-77.5
		C237.5,254.9,232.1,249.5,225.5,249.5z M227,341.5H86v-81.7h141V341.5z"/>
	<rect id="XMLID_3_" x="90.9" y="373.7" class="st2" width="82.4" height="45.8"/>
	<polygon id="XMLID_9_" class="st3" points="132.1,419.5 90.9,419.5 90.9,373.7 132.1,373.7 148.2,396.6 	"/>
	<polygon id="XMLID_11_" class="st4" points="132.4,396.6 109.8,408.4 100.5,398.1 104.9,395.6 111.1,402.4 129.3,393.1 	"/>
</g>
</svg>
