<svg id="visual" viewBox="0 0 900 600" width="900" height="600" xmlns="http://www.w3.org/2000/svg" xmlns:xlink="http://www.w3.org/1999/xlink" version="1.1"><g stroke-width="1" stroke-linejoin="bevel"><path d="M442.1 337L366.1 326L370.3 332Z" fill="#bdc3c7" stroke="#bdc3c7"></path><path d="M443.1 211L332.3 263L366.1 326Z" fill="#e2e7e9" stroke="#e2e7e9"></path><path d="M442.1 337L443.1 211L366.1 326Z" fill="#e7ebed" stroke="#e7ebed"></path><path d="M442.1 337L525.9 245L443.1 211Z" fill="#d9dee0" stroke="#d9dee0"></path><path d="M370.3 332L461.9 414L442.1 337Z" fill="#c6cccf" stroke="#c6cccf"></path><path d="M442.1 337L461.9 414L515.9 334Z" fill="#d4d9dc" stroke="#d4d9dc"></path><path d="M515.9 334L533.7 307L442.1 337Z" fill="#c2c7cb" stroke="#c2c7cb"></path><path d="M533.7 307L525.9 245L442.1 337Z" fill="#d9dee0" stroke="#d9dee0"></path><path d="M443.1 211L356.3 177L332.3 263Z" fill="#dde2e4" stroke="#dde2e4"></path><path d="M533.7 307L535.7 230L525.9 245Z" fill="#cfd5d8" stroke="#cfd5d8"></path><path d="M525.9 245L535.7 230L443.1 211Z" fill="#cfd5d8" stroke="#cfd5d8"></path><path d="M443.1 211L427.1 129L356.3 177Z" fill="#cfd5d8" stroke="#cfd5d8"></path><path d="M366.1 326L290.3 388L370.3 332Z" fill="#c2c7cb" stroke="#c2c7cb"></path><path d="M370.3 332L335.3 445L461.9 414Z" fill="#cfd5d8" stroke="#cfd5d8"></path><path d="M248.5 322L290.3 388L366.1 326Z" fill="#c6cccf" stroke="#c6cccf"></path><path d="M248.5 322L366.1 326L332.3 263Z" fill="#e2e7e9" stroke="#e2e7e9"></path><path d="M535.7 230L455.9 151L443.1 211Z" fill="#e7ebed" stroke="#e7ebed"></path><path d="M205.6 240L248.5 322L332.3 263Z" fill="#e7ebed" stroke="#e7ebed"></path><path d="M290.3 388L335.3 445L370.3 332Z" fill="#e7ebed" stroke="#e7ebed"></path><path d="M461.9 414L551.7 379L515.9 334Z" fill="#ecf0f1" stroke="#ecf0f1"></path><path d="M515.9 334L551.7 379L533.7 307Z" fill="#cfd5d8" stroke="#cfd5d8"></path><path d="M533.7 307L633.5 217L535.7 230Z" fill="#e2e7e9" stroke="#e2e7e9"></path><path d="M455.9 151L427.1 129L443.1 211Z" fill="#cfd5d8" stroke="#cfd5d8"></path><path d="M335.3 445L386.1 473L461.9 414Z" fill="#c6cccf" stroke="#c6cccf"></path><path d="M461.9 414L550.7 461L551.7 379Z" fill="#d9dee0" stroke="#d9dee0"></path><path d="M290.3 388L286.5 430L335.3 445Z" fill="#cbd0d4" stroke="#cbd0d4"></path><path d="M335.3 445L341.3 488L386.1 473Z" fill="#d9dee0" stroke="#d9dee0"></path><path d="M220.5 340L286.5 430L290.3 388Z" fill="#cbd0d4" stroke="#cbd0d4"></path><path d="M449.1 485L468.9 474L461.9 414Z" fill="#e7ebed" stroke="#e7ebed"></path><path d="M386.1 473L449.1 485L461.9 414Z" fill="#ecf0f1" stroke="#ecf0f1"></path><path d="M203.5 246L220.5 340L248.5 322Z" fill="#dde2e4" stroke="#dde2e4"></path><path d="M248.5 322L220.5 340L290.3 388Z" fill="#c6cccf" stroke="#c6cccf"></path><path d="M286.5 430L341.3 488L335.3 445Z" fill="#d9dee0" stroke="#d9dee0"></path><path d="M386.1 473L457.9 545L449.1 485Z" fill="#d4d9dc" stroke="#d4d9dc"></path><path d="M513.9 98L442.1 95L455.9 151Z" fill="#cbd0d4" stroke="#cbd0d4"></path><path d="M455.9 151L442.1 95L427.1 129Z" fill="#c6cccf" stroke="#c6cccf"></path><path d="M427.1 129L300.3 116L356.3 177Z" fill="#c2c7cb" stroke="#c2c7cb"></path><path d="M244.5 157L332.3 263L356.3 177Z" fill="#cfd5d8" stroke="#cfd5d8"></path><path d="M244.5 157L205.6 240L332.3 263Z" fill="#d4d9dc" stroke="#d4d9dc"></path><path d="M205.6 240L203.5 246L248.5 322Z" fill="#cbd0d4" stroke="#cbd0d4"></path><path d="M468.9 474L550.7 461L461.9 414Z" fill="#ecf0f1" stroke="#ecf0f1"></path><path d="M457.9 545L550.7 461L468.9 474Z" fill="#dde2e4" stroke="#dde2e4"></path><path d="M442.1 95L300.3 116L427.1 129Z" fill="#dde2e4" stroke="#dde2e4"></path><path d="M300.3 116L244.5 157L356.3 177Z" fill="#cbd0d4" stroke="#cbd0d4"></path><path d="M535.7 230L513.9 98L455.9 151Z" fill="#e7ebed" stroke="#e7ebed"></path><path d="M160.6 282L177.6 337L220.5 340Z" fill="#e2e7e9" stroke="#e2e7e9"></path><path d="M220.5 340L206.6 473L286.5 430Z" fill="#cbd0d4" stroke="#cbd0d4"></path><path d="M286.5 430L224.5 523L341.3 488Z" fill="#e2e7e9" stroke="#e2e7e9"></path><path d="M697.5 286L633.5 217L533.7 307Z" fill="#d4d9dc" stroke="#d4d9dc"></path><path d="M535.7 230L599.7 154L513.9 98Z" fill="#c6cccf" stroke="#c6cccf"></path><path d="M697.5 286L533.7 307L698.4 302Z" fill="#dde2e4" stroke="#dde2e4"></path><path d="M633.5 217L599.7 154L535.7 230Z" fill="#c2c7cb" stroke="#c2c7cb"></path><path d="M550.7 461L614.5 435L551.7 379Z" fill="#e2e7e9" stroke="#e2e7e9"></path><path d="M100.8 233L160.6 282L203.5 246Z" fill="#dde2e4" stroke="#dde2e4"></path><path d="M203.5 246L160.6 282L220.5 340Z" fill="#d9dee0" stroke="#d9dee0"></path><path d="M100.8 233L203.5 246L205.6 240Z" fill="#d4d9dc" stroke="#d4d9dc"></path><path d="M384.1 600L457.9 545L386.1 473Z" fill="#e2e7e9" stroke="#e2e7e9"></path><path d="M449.1 485L457.9 545L468.9 474Z" fill="#e7ebed" stroke="#e7ebed"></path><path d="M550.7 461L639.5 484L614.5 435Z" fill="#d4d9dc" stroke="#d4d9dc"></path><path d="M300.3 116L272.5 91L244.5 157Z" fill="#cbd0d4" stroke="#cbd0d4"></path><path d="M244.5 157L153.6 143L205.6 240Z" fill="#d4d9dc" stroke="#d4d9dc"></path><path d="M324.3 0L272.5 91L300.3 116Z" fill="#c2c7cb" stroke="#c2c7cb"></path><path d="M721.4 164L640.5 187L633.5 217Z" fill="#cfd5d8" stroke="#cfd5d8"></path><path d="M633.5 217L640.5 187L599.7 154Z" fill="#d4d9dc" stroke="#d4d9dc"></path><path d="M51.8 354L206.6 473L177.6 337Z" fill="#d4d9dc" stroke="#d4d9dc"></path><path d="M177.6 337L206.6 473L220.5 340Z" fill="#e2e7e9" stroke="#e2e7e9"></path><path d="M341.3 488L384.1 600L386.1 473Z" fill="#c6cccf" stroke="#c6cccf"></path><path d="M614.5 435L654.5 405L551.7 379Z" fill="#cbd0d4" stroke="#cbd0d4"></path><path d="M206.6 473L224.5 523L286.5 430Z" fill="#d9dee0" stroke="#d9dee0"></path><path d="M698.4 302L533.7 307L551.7 379Z" fill="#bdc3c7" stroke="#bdc3c7"></path><path d="M654.5 405L698.4 302L551.7 379Z" fill="#c6cccf" stroke="#c6cccf"></path><path d="M614.5 435L639.5 484L654.5 405Z" fill="#e7ebed" stroke="#e7ebed"></path><path d="M759.4 342L744.4 255L698.4 302Z" fill="#cfd5d8" stroke="#cfd5d8"></path><path d="M614.7 565L639.5 484L550.7 461Z" fill="#cbd0d4" stroke="#cbd0d4"></path><path d="M272.5 91L153.6 143L244.5 157Z" fill="#e7ebed" stroke="#e7ebed"></path><path d="M289.3 600L384.1 600L341.3 488Z" fill="#bdc3c7" stroke="#bdc3c7"></path><path d="M590.7 600L614.7 565L550.7 461Z" fill="#e2e7e9" stroke="#e2e7e9"></path><path d="M523.9 0L405.1 0L442.1 95Z" fill="#dde2e4" stroke="#dde2e4"></path><path d="M442.1 95L405.1 0L300.3 116Z" fill="#e2e7e9" stroke="#e2e7e9"></path><path d="M272.5 91L158.6 43L153.6 143Z" fill="#dde2e4" stroke="#dde2e4"></path><path d="M523.9 0L442.1 95L513.9 98Z" fill="#c2c7cb" stroke="#c2c7cb"></path><path d="M384.1 600L465.9 600L457.9 545Z" fill="#dde2e4" stroke="#dde2e4"></path><path d="M405.1 0L324.3 0L300.3 116Z" fill="#cbd0d4" stroke="#cbd0d4"></path><path d="M624.5 42L584.7 40L599.7 154Z" fill="#e2e7e9" stroke="#e2e7e9"></path><path d="M599.7 154L584.7 40L513.9 98Z" fill="#dde2e4" stroke="#dde2e4"></path><path d="M624.5 42L599.7 154L699.4 87Z" fill="#e7ebed" stroke="#e7ebed"></path><path d="M153.6 143L100.8 233L205.6 240Z" fill="#dde2e4" stroke="#dde2e4"></path><path d="M160.6 282L51.8 354L177.6 337Z" fill="#c6cccf" stroke="#c6cccf"></path><path d="M147.6 551L244.5 600L224.5 523Z" fill="#d9dee0" stroke="#d9dee0"></path><path d="M224.5 523L289.3 600L341.3 488Z" fill="#d9dee0" stroke="#d9dee0"></path><path d="M584.7 40L523.9 0L513.9 98Z" fill="#dde2e4" stroke="#dde2e4"></path><path d="M590.7 600L550.7 461L457.9 545Z" fill="#d4d9dc" stroke="#d4d9dc"></path><path d="M759.4 342L698.4 302L654.5 405Z" fill="#cbd0d4" stroke="#cbd0d4"></path><path d="M699.4 87L599.7 154L640.5 187Z" fill="#ecf0f1" stroke="#ecf0f1"></path><path d="M584.7 40L565.7 0L523.9 0Z" fill="#cbd0d4" stroke="#cbd0d4"></path><path d="M698.4 302L744.4 255L697.5 286Z" fill="#e2e7e9" stroke="#e2e7e9"></path><path d="M697.5 286L744.4 255L633.5 217Z" fill="#ecf0f1" stroke="#ecf0f1"></path><path d="M708.4 475L654.5 405L639.5 484Z" fill="#e2e7e9" stroke="#e2e7e9"></path><path d="M641.5 0L565.7 0L584.7 40Z" fill="#bdc3c7" stroke="#bdc3c7"></path><path d="M324.3 0L250.5 0L272.5 91Z" fill="#cbd0d4" stroke="#cbd0d4"></path><path d="M147.6 551L224.5 523L206.6 473Z" fill="#cfd5d8" stroke="#cfd5d8"></path><path d="M224.5 523L244.5 600L289.3 600Z" fill="#dde2e4" stroke="#dde2e4"></path><path d="M744.4 255L721.4 164L633.5 217Z" fill="#d9dee0" stroke="#d9dee0"></path><path d="M714.4 493L708.4 475L639.5 484Z" fill="#d4d9dc" stroke="#d4d9dc"></path><path d="M465.9 600L590.7 600L457.9 545Z" fill="#e7ebed" stroke="#e7ebed"></path><path d="M614.7 565L714.4 493L639.5 484Z" fill="#bdc3c7" stroke="#bdc3c7"></path><path d="M708.4 475L759.4 342L654.5 405Z" fill="#d9dee0" stroke="#d9dee0"></path><path d="M191.6 0L158.6 43L272.5 91Z" fill="#cbd0d4" stroke="#cbd0d4"></path><path d="M40.8 167L43.8 263L100.8 233Z" fill="#ecf0f1" stroke="#ecf0f1"></path><path d="M43.8 263L160.6 282L100.8 233Z" fill="#d9dee0" stroke="#d9dee0"></path><path d="M43.8 263L51.8 354L160.6 282Z" fill="#c6cccf" stroke="#c6cccf"></path><path d="M721.4 164L699.4 87L640.5 187Z" fill="#e7ebed" stroke="#e7ebed"></path><path d="M624.5 42L641.5 0L584.7 40Z" fill="#c2c7cb" stroke="#c2c7cb"></path><path d="M636.5 600L714.4 493L614.7 565Z" fill="#e7ebed" stroke="#e7ebed"></path><path d="M843.2 403L804.2 334L759.4 342Z" fill="#cfd5d8" stroke="#cfd5d8"></path><path d="M46.8 492L147.6 551L206.6 473Z" fill="#cfd5d8" stroke="#cfd5d8"></path><path d="M40.8 167L100.8 233L153.6 143Z" fill="#d9dee0" stroke="#d9dee0"></path><path d="M250.5 0L191.6 0L272.5 91Z" fill="#d9dee0" stroke="#d9dee0"></path><path d="M590.7 600L636.5 600L614.7 565Z" fill="#dde2e4" stroke="#dde2e4"></path><path d="M699.4 87L641.5 0L624.5 42Z" fill="#cbd0d4" stroke="#cbd0d4"></path><path d="M70.8 89L40.8 167L153.6 143Z" fill="#dde2e4" stroke="#dde2e4"></path><path d="M70.8 89L153.6 143L158.6 43Z" fill="#c6cccf" stroke="#c6cccf"></path><path d="M843.2 403L759.4 342L708.4 475Z" fill="#ecf0f1" stroke="#ecf0f1"></path><path d="M759.4 342L804.2 334L744.4 255Z" fill="#d9dee0" stroke="#d9dee0"></path><path d="M744.4 255L826.2 207L721.4 164Z" fill="#dde2e4" stroke="#dde2e4"></path><path d="M721.4 164L828.2 58L699.4 87Z" fill="#d4d9dc" stroke="#d4d9dc"></path><path d="M72.8 0L70.8 89L158.6 43Z" fill="#d9dee0" stroke="#d9dee0"></path><path d="M0 472L46.8 492L51.8 354Z" fill="#c6cccf" stroke="#c6cccf"></path><path d="M51.8 354L46.8 492L206.6 473Z" fill="#cfd5d8" stroke="#cfd5d8"></path><path d="M0 345L51.8 354L43.8 263Z" fill="#cbd0d4" stroke="#cbd0d4"></path><path d="M0 255L43.8 263L0 188Z" fill="#ecf0f1" stroke="#ecf0f1"></path><path d="M0 255L0 257L43.8 263Z" fill="#e2e7e9" stroke="#e2e7e9"></path><path d="M0 257L0 345L43.8 263Z" fill="#e2e7e9" stroke="#e2e7e9"></path><path d="M0 188L43.8 263L40.8 167Z" fill="#cbd0d4" stroke="#cbd0d4"></path><path d="M110.8 600L120.6 600L147.6 551Z" fill="#e2e7e9" stroke="#e2e7e9"></path><path d="M147.6 551L120.6 600L244.5 600Z" fill="#cfd5d8" stroke="#cfd5d8"></path><path d="M59.8 544L110.8 600L147.6 551Z" fill="#e7ebed" stroke="#e7ebed"></path><path d="M0 38L0 188L40.8 167Z" fill="#bdc3c7" stroke="#bdc3c7"></path><path d="M46.8 492L59.8 544L147.6 551Z" fill="#d9dee0" stroke="#d9dee0"></path><path d="M0 485L59.8 544L46.8 492Z" fill="#c2c7cb" stroke="#c2c7cb"></path><path d="M804.2 334L826.2 207L744.4 255Z" fill="#d4d9dc" stroke="#d4d9dc"></path><path d="M699.4 87L763.4 0L641.5 0Z" fill="#e2e7e9" stroke="#e2e7e9"></path><path d="M0 345L0 472L51.8 354Z" fill="#e2e7e9" stroke="#e2e7e9"></path><path d="M846.2 411L708.4 475L714.4 493Z" fill="#c2c7cb" stroke="#c2c7cb"></path><path d="M846.2 411L843.2 403L708.4 475Z" fill="#e7ebed" stroke="#e7ebed"></path><path d="M900 230L857.2 183L826.2 207Z" fill="#dde2e4" stroke="#dde2e4"></path><path d="M0 472L0 485L46.8 492Z" fill="#e7ebed" stroke="#e7ebed"></path><path d="M59.8 544L0 600L110.8 600Z" fill="#ecf0f1" stroke="#ecf0f1"></path><path d="M191.6 0L72.8 0L158.6 43Z" fill="#ecf0f1" stroke="#ecf0f1"></path><path d="M70.8 89L0 38L40.8 167Z" fill="#cbd0d4" stroke="#cbd0d4"></path><path d="M855.2 511L846.2 411L714.4 493Z" fill="#c6cccf" stroke="#c6cccf"></path><path d="M900 307L826.2 207L804.2 334Z" fill="#ecf0f1" stroke="#ecf0f1"></path><path d="M900 307L804.2 334L900 364Z" fill="#cfd5d8" stroke="#cfd5d8"></path><path d="M826.2 207L857.2 183L721.4 164Z" fill="#e7ebed" stroke="#e7ebed"></path><path d="M828.2 58L763.4 0L699.4 87Z" fill="#d4d9dc" stroke="#d4d9dc"></path><path d="M636.5 600L767.4 600L714.4 493Z" fill="#cbd0d4" stroke="#cbd0d4"></path><path d="M857.2 183L828.2 58L721.4 164Z" fill="#d9dee0" stroke="#d9dee0"></path><path d="M72.8 0L0 38L70.8 89Z" fill="#bdc3c7" stroke="#bdc3c7"></path><path d="M767.4 600L855.2 511L714.4 493Z" fill="#dde2e4" stroke="#dde2e4"></path><path d="M828.2 58L797.2 0L763.4 0Z" fill="#d9dee0" stroke="#d9dee0"></path><path d="M900 364L843.2 403L900 409Z" fill="#c6cccf" stroke="#c6cccf"></path><path d="M900 364L804.2 334L843.2 403Z" fill="#e2e7e9" stroke="#e2e7e9"></path><path d="M857.2 183L900 143L828.2 58Z" fill="#cfd5d8" stroke="#cfd5d8"></path><path d="M796.2 600L855.2 511L767.4 600Z" fill="#cfd5d8" stroke="#cfd5d8"></path><path d="M900 409L843.2 403L846.2 411Z" fill="#d4d9dc" stroke="#d4d9dc"></path><path d="M900 307L900 230L826.2 207Z" fill="#d9dee0" stroke="#d9dee0"></path><path d="M855.2 511L900 409L846.2 411Z" fill="#cfd5d8" stroke="#cfd5d8"></path><path d="M0 485L0 600L59.8 544Z" fill="#d4d9dc" stroke="#d4d9dc"></path><path d="M72.8 0L0 0L0 38Z" fill="#c6cccf" stroke="#c6cccf"></path><path d="M900 230L900 143L857.2 183Z" fill="#cbd0d4" stroke="#cbd0d4"></path><path d="M828.2 58L900 0L797.2 0Z" fill="#d9dee0" stroke="#d9dee0"></path><path d="M900 600L900 525L855.2 511Z" fill="#e7ebed" stroke="#e7ebed"></path><path d="M855.2 511L900 525L900 409Z" fill="#cfd5d8" stroke="#cfd5d8"></path><path d="M900 143L900 38L828.2 58Z" fill="#c2c7cb" stroke="#c2c7cb"></path><path d="M796.2 600L900 600L855.2 511Z" fill="#c6cccf" stroke="#c6cccf"></path><path d="M900 38L900 0L828.2 58Z" fill="#cbd0d4" stroke="#cbd0d4"></path></g></svg>